<?xml version="1.0" standalone="no"?>
<!DOCTYPE svg PUBLIC "-//W3C//DTD SVG 20010904//EN"
 "http://www.w3.org/TR/2001/REC-SVG-20010904/DTD/svg10.dtd">
<svg version="1.0" xmlns="http://www.w3.org/2000/svg"
 width="16.000000pt" height="16.000000pt" viewBox="0 0 16.000000 16.000000"
 preserveAspectRatio="xMidYMid meet">
<metadata>
Created by potrace 1.11, written by Peter Selinger 2001-2013
</metadata>
<g transform="translate(0.000000,16.000000) scale(0.002524,-0.002524)"
fill="#000000" stroke="none">
<path d="M3855 5244 c-81 -45 -131 -65 -199 -84 -42 -11 -78 -20 -81 -20 -9 0
-65 -60 -65 -69 0 -5 -29 -25 -63 -44 -56 -30 -84 -38 -217 -57 -84 -12 -174
-31 -199 -42 -25 -10 -69 -42 -97 -71 -28 -29 -65 -63 -83 -76 -18 -13 -43
-41 -56 -61 -19 -30 -31 -38 -63 -44 -44 -7 -97 -45 -107 -77 -4 -10 -19 -26
-34 -33 -44 -23 -89 -76 -105 -123 -20 -58 -14 -132 19 -223 14 -41 27 -81 28
-89 1 -9 -31 -22 -103 -40 -124 -32 -156 -48 -201 -97 -19 -21 -55 -58 -80
-83 -63 -64 -74 -83 -104 -190 -14 -52 -35 -111 -46 -133 -22 -43 -20 -45 18
-21 42 28 139 23 188 -8 l40 -26 39 26 40 26 325 2 c252 2 338 -1 378 -11 215
-57 307 -229 239 -447 -47 -152 -140 -253 -271 -297 -85 -28 -115 -31 -337
-32 l-196 0 -27 -117 c-15 -65 -33 -129 -41 -143 -53 -102 -172 -140 -274 -87
l-48 25 -48 -24 c-30 -15 -64 -24 -93 -24 -49 0 -117 26 -140 53 -16 20 -34
12 -26 -12 4 -12 -6 -22 -38 -36 l-42 -20 3 -67 c4 -65 -11 -138 -28 -138 -4
0 -27 18 -50 40 -23 22 -50 40 -59 40 -32 -1 -184 -30 -337 -65 -28 -6 -36
-38 -17 -64 13 -20 12 -22 -16 -27 -17 -4 -31 -10 -31 -14 0 -4 18 -3 40 2 35
9 47 8 86 -13 25 -12 47 -26 49 -29 11 -18 -61 -80 -140 -120 -78 -38 -90 -48
-106 -85 -10 -23 -26 -48 -34 -55 -23 -19 -45 -106 -38 -153 8 -63 15 -75 86
-157 65 -75 74 -93 49 -97 -162 -23 -208 -40 -217 -76 -4 -13 -19 -31 -35 -40
-32 -19 -39 -44 -46 -177 -5 -90 -5 -91 25 -120 32 -33 45 -36 88 -19 30 12
77 30 272 103 68 26 149 58 180 72 110 51 98 48 271 59 289 17 323 21 405 57
78 35 135 40 260 26 94 -11 128 -27 145 -67 21 -51 115 -76 191 -49 19 6 72
35 119 64 150 92 626 325 865 424 257 106 286 126 290 196 1 19 14 46 29 64
33 40 32 56 -4 104 -17 22 -30 52 -30 66 0 23 44 188 65 242 6 16 -22 17 -427
20 -474 3 -454 1 -525 64 -100 91 -100 261 0 350 18 16 93 83 167 149 74 66
137 122 140 125 3 3 28 25 55 49 28 24 73 65 100 90 28 26 91 83 142 128 l91
81 -166 4 c-183 3 -210 10 -270 69 -115 112 -84 304 63 382 39 21 51 21 530
23 383 1 500 -2 535 -12 45 -14 97 -54 127 -100 l16 -25 17 28 c9 15 35 44 57
63 36 32 39 40 41 90 4 85 22 159 55 225 16 33 40 89 52 125 36 104 61 170 68
176 7 7 179 7 212 0 11 -2 55 -7 98 -11 43 -3 86 -8 95 -9 9 -2 44 -7 77 -10
33 -4 74 -10 92 -12 l32 -5 -10 33 c-6 18 -17 55 -24 81 -14 48 -53 117 -67
117 -5 0 -8 4 -8 10 0 9 20 8 112 -5 38 -6 39 -6 32 22 -8 35 -5 31 -137 186
-60 70 -121 134 -136 141 -31 16 -85 29 -176 41 -86 12 -146 25 -165 35 -32
17 -53 58 -61 118 -13 92 -53 99 -134 26 -22 -20 -56 -43 -75 -51 -34 -15 -77
-47 -153 -116 -37 -34 -73 -47 -126 -47 -19 0 -32 10 -49 36 -28 42 -77 65
-192 88 -108 22 -139 40 -157 91 -20 59 -51 70 -108 39z m1362 -621 c42 -48
47 -64 15 -57 -41 8 -105 15 -212 20 -63 4 -117 8 -119 11 -3 2 9 18 26 35 25
25 42 32 89 37 33 3 82 5 109 3 46 -2 54 -7 92 -49z m-2573 -270 c29 -78 44
-103 71 -123 19 -14 34 -27 34 -30 0 -7 -91 -50 -104 -50 -15 0 -66 150 -68
196 -1 31 18 104 28 104 1 0 18 -44 39 -97z m-881 -1995 c-8 -29 -20 -63 -27
-75 -9 -18 -11 -12 -11 43 0 47 4 67 15 74 34 22 39 12 23 -42z m-33 -112 c0
-3 -4 -8 -10 -11 -5 -3 -10 -1 -10 4 0 6 5 11 10 11 6 0 10 -2 10 -4z m-663
-481 c3 -60 18 -85 117 -190 l85 -90 -30 -30 -30 -30 -85 89 c-48 51 -88 102
-93 120 -17 61 1 176 27 176 4 0 8 -20 9 -45z m1378 -340 c22 -3 54 -8 72 -11
35 -7 78 -44 88 -75 4 -12 22 -23 52 -31 l46 -11 -34 -17 c-54 -28 -82 -20
-128 32 -53 60 -101 72 -283 73 -125 0 -135 1 -110 14 64 35 169 44 297 26z
m-365 -65 c-57 -31 -120 -48 -205 -55 -44 -3 -98 -8 -120 -10 -22 -2 -74 -7
-116 -10 -131 -10 -145 -14 -254 -65 -44 -21 -118 -54 -165 -73 -47 -19 -133
-55 -191 -80 -133 -55 -139 -53 -139 46 0 79 9 147 19 147 3 0 5 -33 3 -74 -3
-69 -2 -74 23 -94 20 -16 32 -19 48 -12 12 5 110 44 217 86 107 42 226 92 263
111 90 45 110 48 397 68 132 9 219 20 228 30 3 3 10 5 16 5 6 -1 -5 -9 -24
-20z"/>
<path d="M3469 3749 c-77 -13 -115 -61 -106 -136 5 -51 35 -87 81 -102 18 -6
144 -10 296 -10 146 0 274 0 285 0 23 -1 21 -3 -114 -121 -41 -36 -82 -72 -91
-80 -9 -8 -49 -44 -90 -80 -41 -36 -92 -81 -114 -101 -23 -20 -143 -127 -268
-238 -125 -111 -232 -210 -238 -221 -34 -63 -6 -145 59 -174 32 -15 94 -16
559 -14 l524 3 34 37 c56 61 47 140 -21 187 l-35 24 -340 -1 c-263 0 -337 2
-327 11 6 7 73 66 147 132 74 66 140 125 146 130 13 12 117 103 239 211 50 43
102 90 117 104 14 14 78 70 141 125 116 101 147 140 147 190 0 42 -27 89 -63
110 -30 18 -57 19 -483 20 -248 0 -466 -3 -485 -6z"/>
<path d="M4778 3748 c-66 -11 -92 -48 -123 -182 -15 -61 -35 -149 -47 -196
-11 -47 -21 -92 -23 -100 -2 -8 -6 -26 -9 -40 -113 -479 -139 -591 -141 -623
-8 -110 130 -171 209 -93 31 32 40 61 91 294 10 47 13 59 25 102 7 25 14 56
17 70 2 14 23 102 45 195 22 94 44 188 49 210 4 22 12 54 18 72 5 17 7 34 3
37 -6 7 10 8 226 7 90 0 166 -2 169 -5 3 -2 -18 -103 -46 -223 -28 -120 -53
-227 -56 -238 -2 -11 -9 -40 -16 -65 -6 -25 -12 -52 -14 -60 -2 -8 -17 -74
-34 -146 -45 -191 -41 -229 33 -270 42 -24 83 -23 128 4 39 23 51 58 98 267
17 72 16 71 40 170 12 50 24 98 26 108 8 42 106 452 108 454 4 5 376 6 381 1
2 -2 0 -21 -6 -43 -5 -22 -23 -98 -39 -170 -17 -71 -33 -137 -35 -145 -2 -8
-13 -58 -25 -110 -12 -52 -23 -102 -25 -110 -2 -8 -19 -80 -39 -160 -37 -154
-39 -184 -12 -224 59 -90 198 -71 225 32 9 32 157 660 166 702 2 8 20 86 40
174 39 169 41 221 7 262 -41 49 -26 48 -719 48 -358 1 -671 -2 -695 -6z"/>
<path d="M1887 3449 c-19 -22 -38 -55 -41 -72 -6 -30 1 -127 9 -135 2 -2 13
41 26 95 12 54 28 110 36 126 19 38 10 34 -30 -14z"/>
<path d="M388 3453 c-16 -10 -32 -31 -37 -48 -8 -22 -105 -432 -147 -617 -2
-10 -6 -26 -8 -35 -26 -99 -29 -132 -17 -160 32 -78 156 -65 176 19 2 12 20
84 37 158 l33 135 235 1 c258 1 314 6 375 35 97 46 165 143 185 264 20 122
-14 189 -120 239 -42 20 -63 21 -365 24 -290 2 -323 1 -347 -15z m599 -168
c67 -16 38 -165 -38 -193 -33 -12 -479 -12 -479 0 0 5 10 52 22 103 l21 95
161 2 c182 3 281 1 313 -7z"/>
<path d="M1383 3454 c-26 -13 -35 -27 -47 -68 -14 -47 -39 -153 -50 -207 -3
-13 -21 -91 -40 -174 -70 -292 -86 -364 -86 -385 0 -33 53 -80 90 -80 72 0 86
24 130 220 l32 145 240 1 240 1 -6 -26 c-3 -14 -17 -75 -31 -136 -13 -60 -25
-118 -25 -128 0 -32 54 -77 94 -77 71 0 79 17 146 305 34 143 74 315 90 383
38 155 38 176 1 213 -39 38 -80 39 -120 2 -24 -23 -34 -48 -55 -139 -15 -61
-28 -119 -30 -130 -2 -10 -7 -31 -11 -45 l-6 -26 -240 -2 c-131 -1 -239 0
-239 2 0 3 14 63 31 133 32 135 32 179 1 208 -28 24 -73 29 -109 10z"/>
<path d="M2339 3455 c-29 -15 -49 -58 -63 -132 -2 -10 -20 -88 -41 -173 -50
-212 -85 -361 -90 -385 -2 -11 -10 -49 -18 -85 -13 -58 -13 -68 1 -92 34 -58
121 -66 156 -14 7 12 30 91 50 176 l37 156 237 1 c272 1 306 4 376 37 94 44
155 128 181 251 27 129 -20 216 -137 255 -46 16 -93 18 -358 19 -247 0 -310
-2 -331 -14z m612 -181 c40 -36 14 -144 -43 -176 -17 -9 -86 -13 -259 -14
l-236 -2 19 87 c10 47 21 94 24 103 6 21 57 24 308 21 143 -2 171 -5 187 -19z"/>
<path d="M4474 3402 c-16 -16 -94 -86 -174 -157 -204 -182 -210 -187 -240
-215 -15 -14 -60 -54 -101 -90 -93 -82 -111 -100 -101 -101 4 -1 89 -2 189 -4
l181 -3 36 70 c20 39 36 77 36 87 0 9 12 41 27 72 22 47 34 59 74 77 l47 22
32 131 c17 72 29 133 27 135 -2 2 -17 -9 -33 -24z"/>
<path d="M1132 2095 c0 -16 2 -22 5 -12 2 9 2 23 0 30 -3 6 -5 -1 -5 -18z"/>
<path d="M1140 2056 c0 -3 9 -10 20 -16 11 -6 20 -8 20 -6 0 3 -9 10 -20 16
-11 6 -20 8 -20 6z"/>
</g>
</svg>
