<?xml version="1.0" standalone="no"?>
<!DOCTYPE svg PUBLIC "-//W3C//DTD SVG 20010904//EN"
 "http://www.w3.org/TR/2001/REC-SVG-20010904/DTD/svg10.dtd">
<svg version="1.0" xmlns="http://www.w3.org/2000/svg"
 width="276.000000pt" height="276.000000pt" viewBox="0 0 276.000000 276.000000"
 preserveAspectRatio="xMidYMid meet">
<metadata>
Created by potrace 1.11, written by Peter Selinger 2001-2013
</metadata>
<g transform="translate(0.000000,276.000000) scale(0.100000,-0.100000)"
fill="#000000" stroke="none">
<path d="M1255 2750 c-3 -6 1 -7 9 -4 18 7 21 14 7 14 -6 0 -13 -4 -16 -10z"/>
<path d="M1315 2750 c-4 -6 1 -7 11 -3 13 5 15 3 9 -7 -5 -9 -4 -11 4 -6 6 4
9 12 6 17 -8 12 -22 12 -30 -1z"/>
<path d="M1427 2747 c-3 -8 1 -14 8 -14 7 0 11 6 8 14 -3 7 -6 13 -8 13 -2 0
-5 -6 -8 -13z"/>
<path d="M1390 2741 c0 -10 29 -36 34 -30 1 2 -6 12 -16 22 -10 9 -18 13 -18
8z"/>
<path d="M1370 2731 c0 -7 -4 -10 -8 -7 -4 2 -9 -5 -9 -16 -2 -21 -2 -21 14 1
8 12 12 25 9 28 -3 4 -6 1 -6 -6z"/>
<path d="M1555 2729 c-4 -6 -5 -12 -2 -15 2 -3 7 2 10 11 7 17 1 20 -8 4z"/>
<path d="M1253 2720 c2 -9 -12 -27 -35 -44 -31 -23 -41 -26 -53 -16 -11 9 -15
9 -15 1 0 -6 6 -11 13 -11 8 0 7 -4 -3 -10 -22 -14 -30 -12 -24 8 5 14 4 15
-5 2 -9 -12 -13 -13 -20 -2 -6 11 -10 10 -15 -4 -5 -13 -9 -15 -18 -6 -7 7
-17 12 -22 12 -6 0 -3 -5 7 -11 9 -6 15 -14 12 -19 -3 -4 3 -7 12 -5 10 2 18
4 18 6 0 2 44 9 85 11 19 1 38 7 42 12 4 6 13 4 24 -5 15 -12 16 -12 9 0 -5 9
-4 12 3 7 6 -3 13 -2 17 4 3 5 11 10 16 10 6 0 8 -4 4 -9 -3 -5 0 -13 6 -17 7
-4 9 -3 6 3 -3 5 0 10 8 10 8 0 12 -4 9 -8 -2 -4 4 -7 15 -6 11 0 18 4 16 7
-2 3 7 6 20 6 19 0 22 -3 13 -13 -8 -10 -7 -13 5 -13 9 0 18 -3 20 -7 3 -5 -7
-8 -23 -8 -17 0 -26 4 -23 12 8 20 -29 7 -49 -18 -19 -24 -19 -24 -8 -1 6 13
9 26 6 30 -3 3 -6 2 -6 -2 0 -4 -9 -2 -20 4 -16 8 -21 6 -31 -11 -10 -20 -12
-21 -21 -5 -7 13 -13 14 -23 6 -8 -6 -13 -17 -11 -23 1 -7 1 -9 -1 -4 -3 4
-10 4 -16 0 -7 -4 -6 1 2 10 16 20 2 23 -18 5 -11 -10 -13 -10 -7 0 4 7 1 12
-7 12 -9 0 -14 -8 -12 -17 1 -10 0 -12 -2 -5 -8 22 -26 13 -20 -10 6 -22 6
-22 -8 -4 -25 33 -52 28 -46 -7 1 -5 -4 -5 -10 -1 -7 4 -25 8 -41 10 -21 3
-27 0 -22 -9 5 -8 2 -7 -9 2 -15 12 -20 11 -37 -4 -11 -10 -20 -14 -20 -9 0 5
-5 2 -11 -6 -9 -12 -10 -12 -5 4 5 14 2 17 -10 12 -12 -5 -15 -2 -10 10 6 15
3 14 -21 -1 -27 -18 -54 -47 -49 -53 7 -6 36 11 31 18 -3 4 2 13 10 20 10 9
15 9 15 1 0 -6 -6 -11 -12 -11 -10 0 -10 -2 0 -9 10 -6 5 -11 -17 -21 -17 -7
-28 -16 -26 -20 3 -5 0 -12 -6 -16 -7 -4 -9 -3 -6 3 4 6 0 13 -8 17 -8 3 -17
1 -20 -4 -4 -6 -2 -10 3 -10 5 0 9 -7 9 -16 0 -13 -4 -12 -16 5 -11 14 -20 18
-30 12 -14 -9 -43 8 -35 21 2 4 0 9 -5 13 -6 3 -8 -3 -6 -15 2 -11 -3 -24 -13
-29 -15 -8 -15 -12 -3 -23 12 -11 13 -10 6 2 -5 8 -5 12 0 8 4 -4 14 -3 22 3
10 9 13 8 13 -2 0 -9 3 -10 8 -4 4 6 14 11 22 13 10 1 8 -3 -5 -13 -11 -9 -19
-24 -17 -33 2 -14 1 -15 -7 -2 -5 8 -7 18 -5 22 6 10 -10 11 -19 1 -4 -3 -1
-13 6 -21 9 -12 6 -12 -14 2 -25 16 -27 16 -32 -3 -5 -22 15 -46 28 -33 5 4 5
1 1 -6 -6 -11 -12 -10 -26 3 -17 16 -19 42 -5 64 3 5 0 13 -6 17 -8 4 -9 3 -5
-4 4 -6 -2 -20 -14 -32 -20 -20 -46 -28 -36 -11 3 5 -1 12 -9 15 -13 5 -14 2
-4 -16 10 -18 9 -20 -5 -15 -12 5 -15 3 -10 -5 5 -7 2 -9 -9 -5 -11 4 -14 2
-10 -9 4 -11 9 -12 16 -5 6 6 16 11 21 11 6 0 4 -5 -4 -10 -10 -6 -11 -10 -2
-10 6 0 12 -5 12 -11 0 -8 -4 -9 -13 0 -8 6 -17 8 -20 4 -4 -3 -14 3 -24 14
-10 10 -15 14 -11 8 8 -12 5 -41 -5 -51 -7 -7 -11 10 -8 35 2 11 0 11 -12 0
-8 -8 -11 -16 -6 -17 5 -2 7 -8 3 -13 -3 -5 0 -9 6 -9 6 0 8 -5 4 -11 -4 -8
-9 -8 -17 0 -14 14 -37 14 -37 1 0 -5 8 -6 18 -3 15 6 15 5 3 -10 -13 -16 -15
-16 -40 0 -20 13 -23 13 -14 1 7 -8 10 -18 6 -22 -4 -4 1 -4 12 0 18 7 18 6 6
-9 -7 -9 -17 -14 -22 -11 -5 3 -9 1 -9 -4 0 -11 30 -25 38 -17 3 3 0 5 -7 5
-7 0 -9 5 -5 11 4 8 9 7 15 -2 12 -20 0 -31 -24 -23 -20 6 -21 5 -7 -12 8 -10
10 -16 6 -12 -5 5 -16 -1 -23 -12 -8 -11 -19 -18 -24 -15 -5 4 -9 1 -9 -4 0
-6 5 -11 10 -11 6 0 10 -5 10 -11 0 -5 -4 -8 -9 -5 -5 4 -11 0 -14 -6 -3 -7
-4 1 -3 17 1 17 7 29 14 28 11 -3 16 10 13 30 -1 5 3 6 9 2 6 -3 7 0 4 9 -3 9
-16 16 -28 15 -15 0 -17 -2 -6 -7 17 -8 25 -32 11 -32 -5 0 -11 3 -14 8 -2 4
-2 2 -1 -5 2 -7 -1 -15 -6 -18 -6 -4 -10 -1 -10 4 0 6 -4 11 -10 11 -5 0 -9
-3 -9 -7 3 -20 -2 -34 -11 -28 -6 4 -7 -1 -3 -12 6 -16 5 -17 -13 -3 -19 14
-19 14 0 -8 19 -22 19 -22 0 -22 -11 0 -15 -3 -8 -8 12 -8 15 -74 3 -66 -5 2
-5 12 -2 20 5 14 3 14 -16 2 -18 -11 -23 -11 -30 0 -6 11 -10 10 -15 -4 -4
-10 0 -24 9 -33 10 -10 15 -11 15 -3 0 7 -4 12 -10 12 -5 0 -10 5 -10 11 0 8
6 7 17 -2 9 -8 18 -13 20 -11 3 2 7 1 9 -2 2 -3 1 -4 -2 -1 -4 2 -17 -10 -29
-28 -20 -29 -21 -33 -6 -45 13 -11 14 -13 1 -12 -35 5 -41 1 -29 -21 6 -12 7
-19 1 -15 -5 3 -13 -1 -16 -10 -9 -25 -7 -27 11 -13 9 8 14 9 10 2 -4 -6 -4
-13 0 -16 5 -2 3 -2 -4 -1 -6 2 -17 -4 -25 -13 -11 -14 -10 -15 12 -9 24 6 24
6 -2 -9 -27 -15 -33 -27 -28 -50 1 -5 3 -17 5 -25 1 -8 9 -14 16 -12 8 2 10 0
6 -4 -4 -4 -13 -9 -20 -10 -12 -1 -15 13 -18 68 0 15 -3 15 -19 6 -14 -9 -16
-15 -7 -21 8 -6 6 -7 -6 -3 -11 3 -20 0 -23 -9 -4 -8 -10 -12 -15 -9 -5 3 -9
1 -9 -4 0 -18 29 -21 33 -4 4 16 5 16 6 0 1 -24 -13 -30 -34 -14 -15 10 -16
16 -6 35 7 12 17 18 23 15 7 -5 8 -2 3 6 -6 9 -4 11 5 5 9 -5 11 -4 6 3 -5 8
-1 10 11 6 15 -6 15 -4 -2 9 -11 9 -15 17 -8 17 6 0 15 -5 18 -10 4 -6 11 -8
16 -4 5 3 6 10 3 16 -4 7 -2 8 5 4 6 -4 10 -4 9 1 -1 4 4 19 11 32 10 18 10
22 0 16 -9 -6 -11 -3 -6 11 5 14 2 12 -12 -6 -11 -14 -16 -27 -10 -28 5 -2 6
-8 3 -14 -4 -5 -13 -3 -24 7 -14 12 -20 13 -26 4 -4 -7 -3 -10 4 -5 6 3 13 2
16 -3 3 -5 -1 -11 -9 -15 -8 -3 -19 3 -24 12 -6 9 -11 12 -11 7 0 -6 5 -16 12
-23 9 -9 9 -12 1 -12 -7 0 -15 5 -18 10 -3 6 -12 10 -18 10 -7 0 -4 -5 6 -11
9 -6 15 -15 11 -21 -4 -6 -10 -5 -15 3 -6 10 -9 10 -9 2 0 -6 5 -15 10 -18 5
-3 10 -11 10 -16 0 -6 -4 -8 -8 -5 -5 3 -10 -150 -11 -340 -2 -273 1 -349 11
-362 9 -11 9 -14 1 -9 -10 6 -12 -23 -10 -127 1 -91 5 -129 12 -118 5 9 10 35
11 57 1 22 2 43 3 48 1 4 10 -2 22 -14 23 -23 33 -21 23 5 -3 9 -11 13 -17 9
-6 -4 -7 -1 -2 7 6 10 11 9 22 -5 16 -22 16 -32 3 -40 -15 -9 -12 -25 6 -25 8
0 12 5 9 10 -3 6 -1 10 5 10 7 0 9 -8 5 -21 -5 -14 -3 -19 3 -15 6 3 17 3 26
0 13 -5 13 -10 4 -27 -14 -26 -14 -25 9 -43 12 -8 13 -13 5 -14 -7 0 -10 -5
-7 -10 4 -6 11 -8 16 -5 5 4 9 1 9 -4 0 -6 -4 -11 -9 -11 -13 0 -32 26 -24 34
4 4 -4 3 -17 -2 -13 -5 -25 -14 -26 -21 -1 -6 0 -7 3 -1 2 5 12 10 21 9 11 0
12 -2 5 -6 -7 -2 -13 -9 -13 -15 0 -7 5 -6 14 1 10 8 16 9 21 1 3 -5 1 -10 -5
-10 -7 0 -9 -7 -6 -16 4 -12 2 -15 -9 -10 -8 3 -15 2 -15 -3 0 -11 31 -19 48
-13 10 3 8 8 -5 18 -14 12 -11 11 14 -1 34 -16 46 -29 16 -18 -12 5 -14 3 -8
-7 5 -8 4 -11 -3 -6 -12 7 -42 -19 -42 -37 0 -6 6 -3 13 8 8 10 27 19 43 20
16 2 23 1 17 -2 -7 -2 -13 -9 -13 -14 0 -6 4 -7 10 -4 5 3 10 4 10 0 0 -3 -12
-13 -28 -23 -15 -9 -28 -24 -30 -32 -2 -11 2 -9 13 4 12 16 17 17 30 6 9 -7
15 -8 15 -2 0 6 -4 12 -8 14 -4 2 1 12 12 22 18 18 19 18 13 2 -6 -14 -3 -17
10 -12 16 5 16 4 3 -6 -23 -20 -23 -46 0 -58 11 -6 24 -9 29 -6 4 3 18 -4 30
-15 22 -20 23 -20 37 -3 15 18 15 18 5 -1 -6 -13 -20 -20 -40 -21 -17 0 -31 3
-31 8 0 4 5 8 11 8 5 0 7 5 3 11 -5 8 -9 8 -14 -1 -9 -15 -44 1 -58 26 -8 14
-10 14 -16 -2 -4 -10 -4 -15 0 -12 3 4 11 2 18 -3 57 -48 70 -55 94 -54 15 2
36 6 47 9 15 6 14 4 -3 -7 -20 -12 -21 -15 -9 -26 13 -10 16 -9 20 6 4 15 5
15 6 2 0 -9 -7 -23 -16 -30 -14 -12 -16 -12 -8 0 6 10 4 12 -5 6 -9 -6 -11 -4
-5 5 6 9 4 11 -5 5 -9 -6 -11 -4 -5 5 5 9 4 11 -3 6 -7 -4 -12 -1 -12 6 0 8
-5 6 -11 -5 -6 -10 -8 -21 -5 -24 3 -4 6 -1 6 6 0 17 43 -25 46 -45 1 -9 6
-19 10 -22 4 -4 4 1 1 10 -7 21 -3 22 25 7 16 -9 19 -8 13 3 -7 11 -5 11 6 0
12 -11 12 -14 -1 -22 -9 -6 -18 -5 -23 3 -6 8 -7 8 -4 -3 2 -8 10 -15 18 -16
30 -2 33 -6 14 -15 l-20 -9 20 1 c37 2 46 -1 39 -13 -4 -7 -3 -8 4 -4 6 4 9
14 6 24 -5 15 -4 14 6 -1 9 -15 9 -22 -4 -36 -9 -10 -16 -21 -16 -25 0 -5 9 2
20 15 l19 24 -3 -30 c-3 -25 0 -31 15 -32 21 -2 23 25 4 39 -6 5 -5 12 3 20 8
7 13 9 12 3 -4 -21 0 -25 14 -13 8 7 11 17 8 22 -3 5 0 6 6 2 16 -10 15 -12
-10 -36 -22 -21 -22 -22 -3 -18 11 1 24 8 28 13 5 6 7 3 4 -6 -3 -9 0 -22 6
-28 8 -8 8 -11 0 -11 -6 0 -14 7 -17 16 -3 8 -11 12 -17 9 -18 -12 28 -38 47
-27 11 6 13 11 5 16 -6 4 -11 13 -11 19 0 7 5 4 11 -6 6 -9 15 -15 20 -11 5 3
8 1 7 -5 -2 -5 6 -16 16 -24 15 -11 16 -16 6 -22 -9 -6 -11 -4 -5 5 5 9 4 11
-3 6 -7 -4 -12 -1 -12 6 0 8 -5 6 -11 -5 -6 -10 -8 -21 -5 -24 3 -4 6 -1 6 6
0 7 4 10 10 6 5 -3 6 -13 3 -23 -5 -14 -3 -14 9 2 15 19 38 15 38 -6 0 -7 -6
-6 -15 2 -8 7 -15 8 -15 2 0 -5 14 -15 31 -22 18 -8 28 -18 25 -26 -3 -7 -1
-16 4 -19 4 -3 7 6 5 20 -1 14 2 25 8 25 5 0 4 7 -3 15 -9 10 -9 15 -1 15 6 0
11 -5 11 -11 0 -6 9 -8 23 -4 21 6 21 5 -2 -8 -13 -8 -19 -17 -14 -20 6 -4 13
-3 17 0 10 10 36 12 33 3 -1 -5 7 -16 18 -25 11 -9 15 -14 9 -11 -6 3 -20 -4
-30 -17 l-19 -22 22 18 c12 11 24 14 27 9 3 -6 1 -12 -6 -14 -7 -3 -3 -7 9
-10 14 -4 27 0 35 11 12 14 11 14 -4 3 -15 -12 -17 -11 -16 5 0 10 -3 27 -7
38 -5 15 -4 16 3 6 6 -8 15 -10 23 -5 12 6 12 5 0 -9 -11 -15 -11 -17 2 -17
22 0 27 -23 8 -38 -9 -7 -2 -6 16 4 18 10 29 22 26 27 -3 5 -10 3 -15 -4 -7
-11 -8 -9 -4 4 3 10 6 22 6 25 0 4 5 0 10 -8 6 -10 10 -11 10 -2 0 6 5 12 11
12 8 0 8 -5 -1 -15 -7 -8 -9 -15 -5 -15 5 0 0 -8 -9 -19 -15 -16 -15 -19 -2
-24 11 -4 13 -1 9 10 -4 10 -2 14 5 9 6 -3 14 -1 18 5 5 8 3 9 -5 4 -10 -6
-11 -3 -1 16 18 34 24 38 16 12 -6 -17 -3 -23 8 -23 9 0 15 3 15 8 -3 18 2 32
11 32 6 0 9 -3 9 -7 -4 -22 3 -30 26 -30 13 0 22 3 19 8 -3 5 0 9 5 9 16 0 13
-16 -4 -30 -12 -10 -15 -10 -15 1 0 8 -6 6 -16 -7 -8 -10 -13 -14 -10 -9 2 6
-6 11 -20 10 -23 0 -30 -7 -21 -23 2 -4 2 -1 0 6 -1 8 3 12 9 9 7 -2 12 -11
10 -20 -3 -21 17 -32 31 -18 9 9 8 11 -5 6 -10 -4 -18 -3 -18 3 0 17 28 21 41
6 9 -11 8 -18 -4 -32 -15 -16 -15 -18 2 -18 12 0 17 5 13 15 -4 10 -1 12 9 6
10 -7 9 -2 -3 17 -16 25 -15 38 4 38 5 0 7 -4 4 -9 -3 -4 2 -17 10 -27 12 -15
14 -15 11 -3 -3 9 0 22 6 29 9 10 9 11 0 6 -21 -12 -23 11 -3 29 12 10 20 13
20 7 0 -7 -5 -12 -11 -12 -5 0 -7 -5 -4 -11 5 -7 14 -4 28 8 12 9 17 11 10 4
-9 -10 -9 -20 -2 -34 8 -14 8 -22 -1 -31 -9 -8 -11 -7 -10 4 1 8 2 22 1 30 -1
12 -3 13 -10 1 -10 -15 -3 -51 10 -51 4 0 11 5 14 10 4 6 11 7 17 4 6 -4 8 -2
5 3 -4 6 0 14 9 17 11 4 15 2 11 -8 -4 -10 -1 -13 7 -10 9 3 13 -3 12 -22 0
-15 5 -28 12 -30 7 -1 8 0 2 3 -5 2 -10 9 -10 14 0 6 5 7 10 4 6 -3 13 1 16 9
3 9 10 14 14 11 5 -3 15 3 22 12 7 10 22 20 32 21 17 3 18 2 7 -12 -8 -9 -12
-18 -10 -19 2 -1 13 -9 24 -17 11 -8 17 -10 13 -6 -12 15 31 41 45 27 14 -14
30 -15 22 -1 -3 6 -2 10 3 10 18 0 21 -29 4 -33 -15 -4 -15 -5 -1 -6 9 0 23 7
30 16 8 9 9 14 3 10 -7 -4 -15 0 -18 9 -4 10 -13 13 -27 9 -12 -4 -19 -3 -16
2 8 12 -10 39 -20 30 -4 -5 -1 -12 7 -17 9 -6 10 -10 3 -10 -7 0 -17 8 -22 18
-6 9 -11 11 -11 5 0 -7 -5 -13 -11 -13 -5 0 -7 5 -3 12 4 7 3 8 -4 4 -25 -15
-53 -15 -59 1 -6 14 -7 14 -18 -1 -11 -15 -13 -15 -19 -1 -3 8 -11 15 -17 15
-9 0 -9 -4 0 -14 9 -11 9 -16 0 -22 -8 -5 -9 -3 -4 6 6 9 4 11 -5 5 -9 -6 -11
-4 -5 6 6 11 5 12 -6 2 -21 -20 -38 -16 -34 9 7 36 27 48 21 13 -5 -28 -4 -29
9 -11 8 11 21 16 30 13 10 -4 15 0 16 11 0 14 2 14 9 -3 5 -11 9 -16 9 -11 1
4 11 1 24 -7 15 -9 29 -12 37 -7 8 5 18 6 23 3 4 -3 7 2 5 10 -2 9 2 16 7 16
6 0 9 -6 8 -13 -2 -6 6 -12 17 -12 15 0 18 5 14 22 -3 12 -1 25 4 28 6 3 8 -2
6 -11 -2 -10 0 -25 6 -33 9 -13 13 -12 28 5 19 22 48 33 36 14 -4 -7 -1 -10 7
-7 8 3 13 15 13 27 -1 12 1 19 5 16 3 -4 6 -16 6 -27 0 -12 6 -23 14 -26 9 -3
11 0 6 9 -5 8 -5 11 0 7 4 -4 15 -2 24 5 14 10 14 10 4 -4 -7 -9 -9 -20 -5
-24 4 -5 1 -5 -5 -1 -9 5 -11 2 -7 -7 3 -8 1 -18 -5 -22 -6 -3 -11 -11 -11
-18 0 -6 8 0 17 13 9 14 21 28 26 31 5 3 8 9 8 13 -3 24 1 27 19 11 19 -17 20
-17 20 1 0 16 2 17 10 4 8 -12 10 -12 10 5 1 18 1 19 11 3 5 -10 15 -18 20
-18 6 0 7 6 2 13 -10 16 -14 41 -5 32 4 -4 7 -10 7 -13 0 -4 4 -12 8 -19 5 -7
-1 -16 -14 -23 -17 -10 -20 -9 -14 1 6 9 3 10 -11 5 -10 -5 -24 -9 -31 -9 -7
0 -10 -4 -8 -8 3 -3 -3 -6 -13 -5 -9 0 -16 -5 -14 -11 1 -7 -2 -13 -7 -13 -5
0 -11 -7 -15 -15 -4 -11 3 -9 23 6 16 12 34 19 39 15 6 -3 14 -1 18 5 4 8 3 9
-4 5 -7 -4 -12 -2 -12 4 0 7 12 9 30 6 17 -2 30 0 30 5 0 6 4 8 9 4 5 -3 12
-1 16 5 3 5 11 10 17 10 6 0 5 -7 -3 -17 -10 -12 -5 -11 14 4 16 12 35 19 47
16 11 -3 20 -1 20 5 0 5 -15 9 -34 8 -19 0 -33 -3 -31 -6 2 -3 -5 -6 -15 -6
-11 0 -22 6 -24 12 -3 8 3 10 16 6 16 -4 19 -2 13 9 -8 12 -6 12 9 0 12 -10
20 -11 28 -3 6 6 17 8 26 5 11 -5 13 -3 7 8 -8 12 -6 12 8 0 20 -16 23 -25 5
-15 -10 5 -10 4 -1 -6 9 -9 9 -17 2 -26 -7 -8 -7 -14 1 -19 6 -4 9 -1 8 7 -2
7 3 12 10 10 6 -1 12 2 12 8 0 5 -4 10 -8 10 -4 0 -9 11 -10 25 -2 25 11 34
23 15 5 -8 11 -7 21 1 14 12 10 29 -7 29 -6 0 -7 -6 -3 -13 4 -6 3 -8 -1 -4
-16 14 -13 33 6 33 10 0 16 -2 14 -5 -3 -2 3 -10 13 -17 11 -9 13 -13 4 -14
-7 0 -10 -5 -6 -12 5 -7 2 -8 -7 -3 -11 6 -12 5 -2 -5 14 -15 55 -22 47 -8 -3
4 0 8 5 8 6 0 11 7 11 17 0 14 2 14 23 -3 12 -10 16 -12 10 -4 -19 21 -16 35
4 19 9 -8 14 -9 10 -2 -4 6 -4 13 0 16 5 2 2 2 -4 1 -7 -2 -13 2 -13 7 0 7 11
9 25 7 13 -3 22 -2 20 3 -9 13 5 36 22 36 14 0 14 -2 -1 -13 -11 -8 -13 -14
-7 -19 6 -3 11 -1 11 5 0 6 5 8 10 5 6 -4 10 -3 9 2 -3 18 1 36 7 30 4 -3 16
-1 28 5 11 6 32 13 45 14 13 2 28 7 34 13 7 7 2 8 -14 5 -23 -5 -23 -5 -6 10
11 8 25 12 32 10 14 -6 47 34 39 47 -2 4 5 10 16 14 11 3 20 14 20 23 1 15 3
14 15 -2 12 -16 15 -17 15 -4 0 28 -48 30 -53 2 -1 -5 -8 -8 -14 -8 -7 1 -10
-3 -6 -9 4 -6 1 -7 -7 -2 -9 6 -11 4 -5 -5 6 -9 4 -11 -5 -5 -9 6 -11 4 -5 -5
6 -9 4 -11 -5 -5 -9 6 -11 4 -5 -6 7 -12 6 -12 -6 -1 -12 11 -11 15 4 23 9 6
14 15 11 21 -4 7 -2 8 4 4 7 -4 12 -2 12 3 0 6 6 11 13 11 8 0 14 7 14 15 0 8
-5 15 -10 15 -6 0 -8 3 -5 6 11 10 89 -36 82 -48 -4 -7 -3 -8 5 -4 6 4 9 11 6
16 -3 5 -1 11 5 15 6 4 8 11 5 16 -4 5 -1 9 5 9 7 0 10 7 6 15 -7 20 4 19 21
-2 8 -10 3 3 -11 28 -25 43 -25 46 -6 44 11 -1 23 -5 27 -10 5 -4 2 -5 -6 0
-10 6 -12 4 -6 -5 6 -9 4 -11 -6 -4 -8 4 -3 -6 11 -23 14 -17 27 -29 29 -27 2
2 -4 13 -14 24 -20 22 -8 28 14 7 9 -8 12 -8 7 0 -3 6 -3 13 1 16 5 2 3 3 -3
1 -12 -3 -38 45 -30 54 3 2 1 12 -4 22 -6 12 -5 17 5 17 7 0 11 -6 8 -14 -4
-9 0 -11 11 -7 9 3 13 10 10 15 -3 5 3 8 13 6 10 -1 19 -7 20 -12 1 -6 -5 -9
-14 -7 -8 2 -12 -1 -9 -6 3 -5 -2 -16 -12 -23 -16 -13 -16 -13 -2 5 13 17 13
19 0 14 -18 -6 -20 -34 -2 -30 6 1 12 -2 12 -8 0 -5 5 -10 11 -10 8 0 8 4 0
14 -10 12 -9 17 6 24 17 9 25 12 38 12 3 0 -2 11 -11 25 -9 14 -20 22 -25 19
-5 -3 -6 3 -2 12 5 13 8 14 11 5 3 -8 9 -4 16 11 7 12 18 22 24 20 15 -3 16
15 2 20 -6 2 -2 8 8 15 15 9 19 8 19 -3 0 -7 -3 -11 -7 -9 -3 2 -6 -5 -6 -16
0 -18 2 -18 11 -5 8 10 15 12 21 6 6 -6 10 -2 11 13 0 12 -1 16 -4 9 -3 -6 -9
-9 -14 -6 -6 3 -5 11 2 20 9 11 15 12 28 2 13 -10 14 -9 5 0 -12 14 -7 59 7
68 5 3 9 9 9 15 0 5 -8 1 -18 -8 -10 -10 -16 -26 -14 -36 3 -11 0 -17 -9 -15
-8 2 -13 -3 -11 -10 1 -8 -2 -11 -8 -7 -5 3 -18 1 -29 -5 -15 -7 -22 -7 -27 2
-4 7 -4 10 1 6 15 -14 42 11 40 37 -3 21 0 25 16 20 14 -5 17 -3 13 9 -3 9 -1
16 6 16 6 0 8 -6 5 -13 -4 -6 2 -2 12 11 15 18 21 20 31 10 21 -21 13 2 -9 25
-19 20 -20 21 -14 2 6 -17 5 -18 -5 -5 -11 13 -11 13 -7 0 3 -11 -3 -16 -22
-17 -14 0 -18 1 -8 4 9 2 17 9 17 14 0 5 -8 9 -17 9 -15 0 -16 2 -3 10 10 6
16 6 18 0 2 -6 8 -7 14 -4 6 4 0 15 -14 28 -13 11 -19 18 -13 14 6 -4 20 -5
30 -3 11 2 22 4 25 4 3 1 -1 5 -9 10 -10 7 -11 13 -1 31 6 12 9 28 6 35 -3 10
0 12 12 8 15 -6 15 -4 4 10 -18 22 -6 43 15 26 12 -11 14 -10 11 7 -2 13 3 19
16 19 11 0 21 6 24 13 2 6 8 12 13 12 5 0 2 -11 -6 -24 -11 -16 -13 -26 -6
-31 6 -3 11 -1 11 6 0 7 3 9 6 6 4 -4 1 -13 -6 -22 -10 -12 -10 -15 0 -15 8 0
10 -3 6 -7 -4 -4 -23 -7 -43 -8 -23 0 -38 -6 -41 -15 -4 -12 -2 -13 9 -3 10 8
20 9 29 3 13 -9 13 -10 0 -10 -13 0 -13 -2 0 -9 8 -6 17 -8 21 -5 4 2 14 -4
21 -14 11 -17 13 -4 15 90 1 80 -2 106 -10 101 -9 -5 -9 -3 0 8 9 11 12 95 10
330 -2 173 -6 320 -10 326 -11 18 -37 4 -37 -19 0 -10 -5 -16 -10 -13 -6 4 -7
11 -4 17 4 6 2 8 -3 5 -6 -4 -17 1 -24 10 -12 14 -12 16 2 11 9 -3 22 -2 30 3
12 8 12 10 -1 8 -28 -3 -41 1 -35 11 3 5 13 7 23 4 14 -5 14 -4 2 4 -10 8 -18
8 -27 0 -9 -7 -13 -7 -13 0 0 6 8 16 18 21 9 6 12 11 7 11 -6 0 -17 -6 -24
-12 -11 -11 -12 -9 -6 11 5 17 4 22 -6 18 -8 -2 -12 -11 -10 -18 2 -8 4 -20 4
-26 0 -7 5 -13 11 -13 6 0 4 -5 -4 -10 -8 -5 -10 -10 -5 -10 6 0 11 -9 12 -21
1 -12 -3 -19 -10 -16 -7 2 -10 12 -9 22 3 17 2 17 -15 4 -17 -13 -17 -13 -3 5
14 18 13 19 -2 13 -10 -3 -20 -2 -23 4 -4 5 -3 9 2 8 21 -4 29 3 30 24 2 21 1
21 -13 3 -8 -11 -14 -15 -14 -10 0 6 6 16 12 22 8 8 9 15 3 20 -16 11 -41 47
-27 38 8 -5 12 0 12 17 0 14 10 31 23 40 l22 16 -23 -6 c-20 -5 -22 -2 -19 18
2 13 2 18 0 12 -3 -7 -9 -13 -15 -13 -7 0 -7 -5 1 -14 14 -17 5 -43 -14 -43
-8 0 -15 4 -15 9 0 4 7 8 15 8 8 0 15 5 15 11 0 5 -5 7 -12 3 -6 -4 -8 -3 -4
4 3 6 -3 13 -14 17 -11 3 -20 10 -20 14 0 14 12 20 27 14 12 -5 12 -7 1 -14
-9 -6 -9 -9 -1 -9 19 0 26 20 9 26 -9 3 -13 11 -9 17 4 6 1 7 -7 2 -9 -5 -10
-2 -5 14 7 24 2 26 -27 10 -16 -9 -23 -8 -29 2 -13 20 -11 37 2 19 9 -12 10
-12 5 3 -3 10 -6 20 -6 23 0 2 -6 1 -14 -2 -8 -3 -12 -13 -9 -22 4 -14 3 -15
-5 -2 -6 8 -8 19 -4 25 13 20 11 43 -3 49 -8 3 -19 -2 -24 -11 -7 -14 -10 -14
-20 5 -7 12 -8 22 -4 22 4 0 0 7 -10 14 -15 11 -16 19 -8 34 10 19 6 32 -12
32 -5 0 -7 -6 -4 -12 2 -7 1 -22 -4 -33 -7 -18 -8 -18 -8 -2 -1 11 -6 15 -13
11 -7 -4 -8 -3 -4 4 7 12 -5 16 -34 12 -11 -1 -9 3 5 15 20 16 20 16 -4 9 -18
-5 -23 -3 -19 8 4 10 -1 14 -14 14 -12 -1 -22 5 -24 12 -1 7 0 8 3 2 6 -13 33
-13 33 1 0 5 5 7 11 4 6 -4 8 -13 5 -21 -3 -8 0 -11 8 -8 8 3 21 -5 30 -18 9
-12 16 -17 16 -11 0 7 -9 21 -21 32 -20 18 -20 20 -2 30 10 6 13 11 6 11 -6 0
-15 -5 -19 -11 -4 -8 -9 -7 -14 2 -7 10 -12 10 -23 1 -12 -10 -16 -9 -21 4 -9
23 -7 31 4 14 7 -11 10 -11 10 -2 0 7 4 10 10 7 6 -3 7 1 4 9 -8 22 -20 20
-38 -5 l-15 -22 2 22 c1 11 5 21 9 21 4 0 8 5 8 10 0 6 -8 5 -19 -2 -11 -7
-17 -17 -13 -23 7 -12 -29 15 -40 30 -4 6 -8 6 -8 1 0 -5 -7 -2 -16 5 -21 17
-54 22 -54 7 0 -6 -3 -8 -6 -5 -4 4 -1 13 6 22 8 9 8 15 2 15 -6 0 -14 -5 -17
-10 -4 -6 -11 -8 -16 -4 -5 3 -7 10 -4 15 4 5 -1 12 -9 15 -9 3 -16 11 -16 17
0 6 3 7 7 4 3 -4 12 -2 18 3 9 7 17 5 26 -6 12 -15 11 -16 -9 -10 -25 8 -28 4
-9 -13 11 -8 18 -6 33 11 10 12 13 18 7 14 -7 -4 -13 -3 -13 2 0 15 -33 24
-40 11 -5 -7 -10 -8 -14 -1 -3 6 -2 13 4 17 5 3 10 11 10 18 0 6 -7 2 -16 -9
-13 -16 -15 -16 -10 -2 3 11 0 17 -7 15 -7 -1 -11 6 -9 16 2 9 -2 17 -8 17 -6
0 -8 -4 -5 -10 3 -5 -1 -10 -9 -10 -9 0 -16 4 -16 8 0 5 -12 14 -26 20 -14 7
-23 8 -19 2 3 -5 2 -10 -3 -10 -17 0 -22 13 -9 29 10 14 10 14 -3 5 -12 -10
-68 -12 -77 -4 -3 2 -15 4 -54 9 -5 0 -8 5 -5 9 3 5 -1 9 -9 9 -8 0 -15 -5
-15 -11 -1 -6 -10 0 -20 13 -11 13 -20 19 -20 14 0 -5 6 -15 13 -22 10 -11 9
-13 -5 -8 -10 3 -20 2 -23 -2 -3 -5 13 -8 35 -6 22 2 40 -1 40 -5 0 -5 9 -7
20 -5 11 2 18 0 15 -5 -3 -5 3 -7 13 -5 10 2 19 -2 19 -10 0 -16 -19 -14 -41
4 -9 7 -16 9 -16 3 0 -5 7 -15 15 -22 8 -7 15 -17 15 -23 0 -6 -11 4 -25 23
-14 19 -25 27 -25 19 -1 -11 -3 -11 -10 2 -6 11 -20 15 -40 13 -33 -4 -35 -2
-20 26 7 13 6 21 -2 26 -7 4 -10 4 -6 -1 9 -9 -9 -35 -24 -35 -6 0 -4 7 3 17
13 15 12 15 -8 2 -15 -9 -19 -17 -13 -23 13 -13 13 -26 -1 -26 -5 0 -8 4 -4 9
3 5 1 12 -5 16 -5 3 -10 -2 -11 -12 0 -14 -2 -14 -9 5 -12 29 -24 28 -18 -1 3
-13 0 -24 -6 -24 -6 0 -11 13 -12 28 -1 22 3 27 18 24 10 -2 16 0 14 4 -3 4 1
8 9 8 8 0 11 -5 8 -11 -3 -6 0 -5 8 2 12 11 12 14 0 21 -8 5 -20 7 -27 4 -6
-2 -15 0 -19 6 -3 6 -12 11 -18 11 -7 0 -4 -5 6 -11 9 -5 17 -15 17 -21 0 -7
-5 -6 -15 2 -8 7 -15 9 -15 4 0 -5 -4 -3 -9 4 -6 10 -13 11 -34 1 -15 -7 -24
-16 -21 -20 3 -5 -1 -6 -9 -3 -7 2 -14 12 -14 20 0 8 5 13 12 11 6 -3 19 1 29
9 11 7 23 11 27 8 5 -3 9 0 9 5 0 15 -12 14 -37 -4 -20 -14 -23 -13 -38 7
l-17 23 7 -25 c4 -14 4 -22 0 -18 -5 4 -15 2 -23 -5 -17 -13 -17 -14 4 37 5
14 4 17 -4 12 -7 -4 -12 -14 -12 -22 0 -20 -14 -18 -35 6 -13 14 -14 20 -5 20
7 0 11 3 8 6 -4 3 -16 0 -28 -6 -17 -9 -19 -14 -9 -26 14 -17 -2 -19 -20 -1
-8 6 -11 8 -9 2 7 -12 -11 -29 -32 -31 -8 -1 -24 -5 -35 -9 -16 -6 -15 -3 5
13 13 11 29 18 35 15 5 -4 7 -3 3 2 -4 4 -1 13 7 19 11 8 12 15 4 26 -9 13
-10 13 -6 0z m87 -45 l24 -25 -25 3 c-13 2 -24 8 -24 13 0 5 -4 15 -8 22 -14
22 9 13 33 -13z m164 -40 c3 3 2 0 -4 -7 -6 -8 -5 -17 3 -27 7 -10 2 -8 -11 3
-21 18 -26 15 -24 -14 0 -3 -12 -6 -26 -7 -27 -1 -27 -1 -4 11 12 7 20 15 16
19 -12 12 17 38 31 27 6 -5 15 -8 19 -5z m-199 -25 c3 -6 -1 -7 -9 -4 -18 7
-21 14 -7 14 6 0 13 -4 16 -10z m-5 -26 c0 -2 -7 -4 -15 -4 -8 0 -15 4 -15 10
0 5 7 7 15 4 8 -4 15 -8 15 -10z m75 -4 c-3 -5 -12 -10 -18 -10 -7 0 -6 4 3
10 19 12 23 12 15 0z m471 -11 c8 -6 11 -15 8 -20 -3 -5 -3 -9 0 -9 2 0 13 -3
23 -7 16 -6 16 -5 4 10 -22 28 -5 31 31 5 43 -30 59 -51 46 -59 -6 -4 -3 -12
6 -22 15 -14 15 -16 -3 -14 -12 1 -17 6 -13 16 4 10 1 12 -9 6 -11 -6 -12 -5
-1 6 16 18 15 29 -4 29 -9 0 -13 -5 -9 -12 4 -7 -3 -2 -14 12 -16 20 -21 21
-21 8 0 -21 -16 -32 -26 -17 -4 8 -3 9 4 5 7 -4 12 -3 12 3 0 9 -41 37 -47 33
-14 -9 -24 2 -20 21 6 21 6 21 -8 3 -15 -19 -15 -19 -15 2 0 16 5 20 21 17 12
-2 27 -9 35 -16z m-206 -3 c-7 -7 -13 -7 -20 0 -6 6 -3 10 10 10 13 0 16 -4
10 -10z m-680 -26 c-8 -5 -19 -10 -25 -10 -5 0 -3 5 5 10 8 5 20 10 25 10 6 0
3 -5 -5 -10z m-79 -33 c-10 -9 -11 -8 -5 6 3 10 9 15 12 12 3 -3 0 -11 -7 -18z
m-95 -52 c-1 -8 -5 -17 -8 -21 -5 -4 -4 16 1 34 3 9 9 -1 7 -13z m1139 6 c3
-5 2 -12 -3 -15 -5 -3 -9 1 -9 9 0 17 3 19 12 6z m-1085 -15 c0 -2 -8 -10 -17
-17 -16 -13 -17 -12 -4 4 13 16 21 21 21 13z m-185 -26 c-1 -11 -5 -23 -10
-27 -4 -5 -5 -3 -1 4 3 6 2 14 -4 18 -6 3 -10 -4 -11 -17 0 -22 -1 -22 -8 -3
-7 18 3 31 35 45 0 0 0 -9 -1 -20z m1286 -13 c-10 -9 -11 -8 -5 6 3 10 9 15
12 12 3 -3 0 -11 -7 -18z m60 6 c13 -16 12 -17 -3 -4 -10 7 -18 15 -18 17 0 8
8 3 21 -13z m59 -13 c-8 -5 -19 -10 -25 -10 -5 0 -3 5 5 10 8 5 20 10 25 10 6
0 3 -5 -5 -10z m45 -20 c3 -5 1 -10 -4 -10 -6 0 -11 5 -11 10 0 6 2 10 4 10 3
0 8 -4 11 -10z m-1529 -25 c-8 -9 -13 -21 -10 -29 3 -7 -3 -19 -13 -26 -15
-12 -16 -12 -5 0 6 8 12 19 12 25 -1 5 -9 -1 -20 -14 -11 -12 -17 -27 -14 -32
3 -5 0 -9 -6 -9 -7 0 -9 8 -4 23 6 21 6 22 -14 4 -11 -10 -23 -14 -26 -9 -3 5
3 17 14 27 11 10 20 15 20 11 0 -4 14 4 31 18 33 28 61 36 35 11z m69 -3 c-3
-3 -11 0 -18 7 -9 10 -8 11 6 5 10 -3 15 -9 12 -12z m1476 -5 c-10 -9 -11 -8
-5 6 3 10 9 15 12 12 3 -3 0 -11 -7 -18z m126 -102 c0 -8 -4 -12 -9 -9 -5 3
-6 10 -3 15 9 13 12 11 12 -6z m-1772 -25 c-3 -5 -12 -10 -18 -10 -7 0 -6 4 3
10 19 12 23 12 15 0z m-115 -50 c-8 -5 -7 -9 4 -13 9 -4 16 -12 16 -19 0 -9
-3 -9 -10 2 -14 22 -23 5 -11 -19 9 -17 9 -20 -3 -15 -15 6 -15 54 0 89 8 19
9 19 12 1 2 -10 -1 -22 -8 -26z m2013 -5 c-3 -8 -13 -15 -22 -15 -14 1 -14 2
2 11 9 6 14 15 11 21 -4 7 -2 8 4 4 6 -4 9 -13 5 -21z m-1946 -20 c0 -8 -4
-12 -9 -9 -5 3 -6 10 -3 15 9 13 12 11 12 -6z m1945 -41 c9 -18 8 -18 -5 -2
-8 10 -16 15 -19 12 -4 -3 -9 -1 -12 4 -3 6 1 9 10 8 9 -1 21 -11 26 -22z m79
-26 c-4 -12 -13 -23 -20 -24 -6 -1 -7 0 -1 3 5 2 10 9 10 14 0 6 -6 7 -12 4
-7 -4 -4 1 6 9 26 21 27 20 17 -6z m-44 -13 c0 -8 -4 -12 -9 -9 -5 3 -6 10 -3
15 9 13 12 11 12 -6z m58 -54 c3 -5 2 -12 -3 -15 -5 -3 -9 1 -9 9 0 17 3 19
12 6z m39 -109 c3 -5 -1 -9 -9 -9 -8 0 -12 4 -9 9 3 4 7 8 9 8 2 0 6 -4 9 -8z
m-2374 -47 c-7 -8 -18 -15 -24 -15 -6 0 -2 7 8 15 25 19 32 19 16 0z m124 7
c3 -5 -1 -9 -9 -9 -8 0 -12 4 -9 9 3 4 7 8 9 8 2 0 6 -4 9 -8z m-37 -34 c-3
-8 -6 -5 -6 6 -1 11 2 17 5 13 3 -3 4 -12 1 -19z m2420 -51 c7 2 10 10 7 18
-3 7 -1 16 5 20 6 3 12 -2 13 -12 0 -10 2 -25 2 -33 1 -8 -8 -22 -19 -32 -20
-16 -20 -16 5 -44 14 -16 18 -23 8 -16 -11 9 -18 10 -23 2 -3 -5 -11 -10 -18
-10 -6 0 -3 6 8 13 12 10 14 16 7 21 -7 4 -12 3 -12 -2 0 -11 -36 -23 -45 -14
-3 3 5 16 17 29 23 25 9 33 -16 8 -19 -20 -23 -19 -36 8 -10 19 -9 20 2 6 11
-14 17 -15 30 -5 10 8 13 17 8 25 -6 11 -8 11 -12 0 -4 -11 -8 -10 -21 3 -20
19 -23 35 -4 21 12 -10 47 -14 47 -6 0 3 -5 14 -11 26 -10 20 -9 19 17 -4 16
-15 34 -25 41 -22z m-2457 18 c0 -8 -2 -15 -4 -15 -2 0 -6 7 -10 15 -3 8 -1
15 4 15 6 0 10 -7 10 -15z m-60 -35 c12 -7 10 -9 -8 -7 -12 0 -22 5 -22 9 0
11 12 10 30 -2z m50 6 c0 -2 -7 -7 -16 -10 -8 -3 -12 -2 -9 4 6 10 25 14 25 6z
m2496 -46 c0 -12 -4 -16 -9 -11 -5 5 -6 14 -3 20 10 15 12 14 12 -9z m-2522
-22 c-3 -4 -11 -5 -19 -1 -21 7 -19 12 4 10 11 0 18 -5 15 -9z m2391 2 c3 -6
-1 -7 -9 -4 -18 7 -21 14 -7 14 6 0 13 -4 16 -10z m71 -55 c-2 -7 0 -17 5 -22
6 -6 4 -10 -5 -10 -8 0 -14 5 -13 11 1 6 -3 10 -9 9 -6 -1 -11 5 -11 12 0 12
3 12 16 2 12 -10 14 -9 8 6 -4 11 -3 16 4 12 6 -4 8 -13 5 -20z m50 13 c4 -7
3 -8 -4 -4 -7 4 -12 0 -12 -10 0 -10 -3 -15 -6 -11 -7 6 2 37 10 37 3 0 8 -5
12 -12z m-31 -478 c3 -5 1 -10 -4 -10 -6 0 -11 5 -11 10 0 6 2 10 4 10 3 0 8
-4 11 -10z m-19 -66 c-1 -8 -6 -17 -11 -21 -4 -5 -5 -2 0 6 6 11 4 13 -8 8
-10 -4 -14 -2 -11 7 6 17 32 16 30 0z m-32 -36 c-3 -4 -9 -8 -15 -8 -5 0 -9 4
-9 8 0 5 7 9 15 9 8 0 12 -4 9 -9z m-26 -53 c-3 -3 -9 2 -12 12 -6 14 -5 15 5
6 7 -7 10 -15 7 -18z m-18 -5 c0 -5 -5 -10 -11 -10 -5 0 -7 5 -4 10 3 6 8 10
11 10 2 0 4 -4 4 -10z m-2396 -19 c-8 -9 -44 -11 -44 -3 0 4 11 8 25 8 13 0
22 -2 19 -5z m2419 -6 c-3 -9 -8 -14 -10 -11 -3 3 -2 9 2 15 9 16 15 13 8 -4z
m111 -1 c3 -8 -2 -12 -13 -11 -10 0 -18 6 -18 12 0 16 25 15 31 -1z m-2457
-39 c0 -8 -4 -15 -9 -15 -4 0 -8 7 -8 15 0 8 4 15 8 15 5 0 9 -7 9 -15z m2333
5 c0 -5 -5 -10 -11 -10 -5 0 -7 5 -4 10 3 6 8 10 11 10 2 0 4 -4 4 -10z
m-2299 -97 c-12 -20 -14 -14 -5 12 4 9 9 14 11 11 3 -2 0 -13 -6 -23z m43 -24
c3 -3 -5 -5 -19 -5 -13 0 -22 3 -19 7 4 8 30 6 38 -2z m-14 -81 c0 -11 -12
-10 -30 2 -12 7 -10 9 8 7 12 0 22 -5 22 -9z m2171 -51 c-10 -9 -11 -8 -5 6 3
10 9 15 12 12 3 -3 0 -11 -7 -18z m-35 -21 c0 -14 -5 -21 -9 -17 -4 4 -5 15
-1 24 9 24 12 21 10 -7z m-2059 -43 c-4 -3 -1 -13 6 -21 11 -13 9 -14 -10 -2
-22 14 -22 30 -1 30 6 0 8 -3 5 -7z m57 -25 c-3 -4 -11 -5 -19 -1 -21 7 -19
12 4 10 11 0 18 -5 15 -9z m-69 -8 c3 -6 -1 -7 -9 -4 -18 7 -21 14 -7 14 6 0
13 -4 16 -10z m2020 -10 c3 -5 1 -10 -4 -10 -6 0 -11 5 -11 10 0 6 2 10 4 10
3 0 8 -4 11 -10z m-24 -60 c5 -38 2 -45 -16 -43 -19 1 -19 1 -2 -12 12 -8 14
-15 8 -20 -6 -3 -11 -1 -11 5 0 6 -3 9 -8 6 -4 -2 -16 3 -27 11 -12 9 -14 13
-5 11 8 -3 20 2 27 11 8 11 12 12 13 4 0 -18 17 -16 17 2 0 8 -4 15 -9 15 -4
0 -8 5 -8 10 0 6 5 10 10 10 6 0 11 -4 11 -10z m-1861 -58 c0 -15 -11 -21 -27
-15 -12 5 -12 7 -1 14 17 11 28 11 28 1z m80 -27 c0 -5 -5 -3 -10 5 -5 8 -10
20 -10 25 0 6 5 3 10 -5 5 -8 10 -19 10 -25z m1660 4 c0 -5 -4 -9 -8 -9 -5 0
-9 7 -9 15 0 8 4 12 9 9 4 -3 8 -9 8 -15z m-1701 4 c-4 -26 3 -34 24 -28 l22
6 -23 -14 c-12 -7 -20 -16 -17 -20 2 -4 0 -3 -7 3 -14 12 -20 60 -7 60 5 0 8
-3 8 -7z m81 -23 c0 -5 -5 -10 -11 -10 -5 0 -7 5 -4 10 3 6 8 10 11 10 2 0 4
-4 4 -10z m1580 -19 c0 -6 -4 -13 -10 -16 -5 -3 -10 -11 -10 -16 0 -6 4 -8 8
-5 4 2 14 1 22 -4 10 -6 21 -3 34 8 18 16 18 16 7 -5 -10 -21 -51 -29 -51 -10
0 4 -4 6 -9 2 -15 -8 -24 14 -12 29 6 7 8 16 4 19 -3 4 -1 7 5 7 7 0 12 -4 12
-9z m-1587 -14 c4 3 7 2 7 -4 0 -6 -7 -14 -16 -17 -8 -3 -12 -2 -9 4 3 6 1 10
-4 10 -6 0 -11 5 -11 11 0 8 4 9 13 0 8 -6 17 -8 20 -4z m1543 -49 c-9 -5 -16
-13 -16 -19 0 -5 12 -2 28 8 22 14 25 15 15 2 -7 -9 -9 -19 -5 -23 4 -5 0 -7
-8 -5 -8 2 -24 -2 -35 -8 -11 -6 -28 -9 -37 -8 -10 2 -18 -1 -18 -6 0 -5 -3
-8 -7 -8 -21 3 -33 -2 -30 -13 1 -7 -6 -12 -15 -12 -10 1 -20 -7 -23 -17 -6
-18 -18 -24 -39 -20 -5 1 -6 -5 -3 -13 4 -10 -2 -20 -14 -27 -19 -10 -20 -9
-9 11 9 16 8 25 -2 38 -11 15 -11 15 3 4 14 -10 18 -10 22 2 3 8 1 17 -6 19
-7 2 -5 3 3 3 9 -1 14 -9 12 -21 -3 -16 -2 -17 12 -6 13 11 14 17 5 28 -7 7
-9 16 -5 20 3 3 6 1 6 -5 0 -7 5 -12 11 -12 5 0 7 5 4 10 -3 6 -1 11 4 11 36
4 65 21 94 53 25 27 26 28 12 4 -11 -17 -13 -28 -6 -33 6 -3 11 0 11 8 0 8 7
20 15 27 8 7 12 16 9 21 -3 5 2 6 12 2 15 -5 15 -7 0 -15z m-1452 4 c3 -5 -1
-9 -9 -9 -8 0 -12 4 -9 9 3 4 7 8 9 8 2 0 6 -4 9 -8z m-100 -28 c3 -8 2 -12
-4 -9 -6 3 -10 10 -10 16 0 14 7 11 14 -7z m1381 -14 c-3 -5 -12 -10 -18 -10
-7 0 -6 4 3 10 19 12 23 12 15 0z m65 0 c-8 -5 -19 -10 -25 -10 -5 0 -3 5 5
10 8 5 20 10 25 10 6 0 3 -5 -5 -10z m-1290 -10 c0 -5 -8 -10 -17 -10 -15 0
-16 2 -3 10 19 12 20 12 20 0z m15 -30 c-3 -5 4 -11 17 -11 17 -1 18 -3 6 -6
-14 -4 -16 -8 -8 -24 6 -11 7 -19 2 -19 -6 0 -12 8 -15 18 -2 9 -8 25 -12 35
-4 10 -3 17 5 17 6 0 8 -4 5 -10z m62 -15 c0 -8 -4 -12 -9 -9 -5 3 -6 10 -3
15 9 13 12 11 12 -6z m1023 -39 c0 -2 -7 -7 -16 -10 -8 -3 -12 -2 -9 4 6 10
25 14 25 6z m-50 -26 c-8 -5 -19 -10 -25 -10 -5 0 -3 5 5 10 8 5 20 10 25 10
6 0 3 -5 -5 -10z m-155 -9 c3 -5 2 -12 -3 -15 -5 -3 -9 1 -9 9 0 17 3 19 12 6z
m-535 -5 c0 -2 -7 -7 -16 -10 -8 -3 -12 -2 -9 4 6 10 25 14 25 6z m60 0 c0 -2
-7 -7 -16 -10 -8 -3 -12 -2 -9 4 6 10 25 14 25 6z m420 0 c0 -2 -7 -7 -16 -10
-8 -3 -12 -2 -9 4 6 10 25 14 25 6z m-220 -27 c0 -10 -23 -17 -37 -11 -22 7
-14 18 12 18 14 0 25 -3 25 -7z m110 5 c0 -8 -19 -13 -24 -6 -3 5 1 9 9 9 8 0
15 -2 15 -3z m-166 -69 c-4 -8 -10 -12 -15 -9 -5 3 -12 -2 -15 -10 -3 -9 -11
-13 -16 -10 -6 4 -5 10 3 15 11 7 11 9 1 9 -7 0 -10 5 -7 10 4 6 10 8 15 5 5
-3 11 -1 15 5 9 15 25 2 19 -15z m79 -10 c-10 -7 -22 -11 -27 -8 -5 4 -1 12 9
19 10 7 22 11 27 8 5 -3 1 -12 -9 -19z"/>
<path d="M1466 2632 c-3 -5 1 -9 9 -9 8 0 12 4 9 9 -3 4 -7 8 -9 8 -2 0 -6 -4
-9 -8z"/>
<path d="M1820 2560 c0 -13 18 -22 24 -11 3 5 -1 11 -9 15 -8 3 -15 1 -15 -4z"/>
<path d="M1897 2539 c12 -12 24 -21 27 -18 2 2 -8 13 -22 23 l-27 19 22 -24z"/>
<path d="M534 2328 l-19 -23 23 19 c21 18 27 26 19 26 -2 0 -12 -10 -23 -22z"/>
<path d="M489 2303 c-13 -16 -12 -17 4 -4 9 7 17 15 17 17 0 8 -8 3 -21 -13z"/>
<path d="M2595 1770 c-5 -8 -1 -17 9 -22 16 -9 16 -12 -5 -35 -17 -17 -19 -22
-7 -18 18 7 54 55 41 55 -4 0 2 7 13 16 18 15 18 15 -2 5 -14 -7 -24 -7 -31 0
-8 8 -13 7 -18 -1z m26 -17 c13 -16 12 -17 -3 -4 -17 13 -22 21 -14 21 2 0 10
-8 17 -17z"/>
<path d="M1990 280 c0 -5 5 -10 11 -10 5 0 7 5 4 10 -3 6 -8 10 -11 10 -2 0
-4 -4 -4 -10z"/>
<path d="M1285 2720 c-3 -6 1 -7 9 -4 18 7 21 14 7 14 -6 0 -13 -4 -16 -10z"/>
<path d="M1455 2720 c-3 -5 -1 -10 4 -10 6 0 11 5 11 10 0 6 -2 10 -4 10 -3 0
-8 -4 -11 -10z"/>
<path d="M1513 2718 c1 -7 -4 -12 -11 -10 -8 1 -11 -2 -7 -8 5 -8 11 -7 21 1
16 13 18 29 4 29 -5 0 -9 -6 -7 -12z"/>
<path d="M1620 2700 c-8 -5 -10 -10 -5 -10 6 0 17 5 25 10 8 5 11 10 5 10 -5
0 -17 -5 -25 -10z"/>
<path d="M1173 2685 c0 -8 4 -15 9 -15 4 0 8 4 8 9 0 6 -4 12 -8 15 -5 3 -9
-1 -9 -9z"/>
<path d="M1430 2690 c0 -5 7 -7 15 -4 8 4 15 8 15 10 0 2 -7 4 -15 4 -8 0 -15
-4 -15 -10z"/>
<path d="M1533 2687 c0 -8 6 -14 14 -14 9 0 10 4 2 14 -6 7 -12 13 -14 13 -1
0 -2 -6 -2 -13z"/>
<path d="M1110 2680 c0 -5 5 -10 10 -10 6 0 10 5 10 10 0 6 -4 10 -10 10 -5 0
-10 -4 -10 -10z"/>
<path d="M1075 2660 c3 -5 8 -10 11 -10 2 0 4 5 4 10 0 6 -5 10 -11 10 -5 0
-7 -4 -4 -10z"/>
<path d="M1590 2660 c0 -5 5 -10 10 -10 6 0 10 5 10 10 0 6 -4 10 -10 10 -5 0
-10 -4 -10 -10z"/>
<path d="M915 2651 c-3 -5 -2 -12 3 -15 5 -3 9 1 9 9 0 17 -3 19 -12 6z"/>
<path d="M959 2658 c-6 -22 -5 -39 3 -45 6 -3 8 -1 4 5 -3 5 0 13 6 15 10 4
10 6 0 6 -7 1 -10 6 -7 11 3 6 4 10 1 10 -3 0 -6 -1 -7 -2z"/>
<path d="M1007 2633 c3 -7 9 -13 14 -13 4 0 6 -8 2 -17 -5 -15 -3 -15 11 2 10
11 15 15 12 8 -6 -12 11 -29 20 -20 10 10 -9 37 -25 35 -9 -2 -15 2 -14 8 1 6
-4 11 -12 11 -7 0 -11 -6 -8 -14z"/>
<path d="M1726 2637 c3 -10 9 -15 12 -12 3 3 0 11 -7 18 -10 9 -11 8 -5 -6z"/>
<path d="M836 2622 c-3 -5 1 -9 9 -9 8 0 12 4 9 9 -3 4 -7 8 -9 8 -2 0 -6 -4
-9 -8z"/>
<path d="M987 2616 c-3 -8 -2 -18 3 -21 13 -8 20 9 11 24 -6 10 -10 9 -14 -3z"/>
<path d="M1778 2618 c5 -5 16 -8 23 -6 8 3 3 7 -10 11 -17 4 -21 3 -13 -5z"/>
<path d="M913 2613 c9 -2 15 -8 12 -13 -3 -4 1 -13 9 -19 10 -9 17 -7 27 6 7
10 10 15 5 11 -5 -4 -15 -1 -23 7 -8 8 -22 14 -31 14 -15 -1 -15 -2 1 -6z"/>
<path d="M810 2600 c0 -5 5 -10 11 -10 5 0 7 5 4 10 -3 6 -8 10 -11 10 -2 0
-4 -4 -4 -10z"/>
<path d="M856 2595 c-11 -8 -16 -15 -10 -15 5 0 18 7 28 15 11 8 16 15 10 15
-5 0 -18 -7 -28 -15z"/>
<path d="M1894 2598 c-4 -7 -4 -10 1 -6 4 4 15 2 24 -5 14 -11 14 -10 2 6 -16
20 -18 21 -27 5z"/>
<path d="M806 2573 c-4 -5 -13 -8 -19 -8 -7 0 -11 -8 -9 -18 2 -14 -1 -15 -23
-7 -17 7 -24 7 -20 0 3 -6 14 -10 23 -10 15 0 15 -2 2 -10 -12 -8 -10 -9 7 -7
12 2 25 6 29 9 3 4 11 5 17 4 7 -2 9 -1 5 1 -13 7 -9 23 5 21 15 -4 16 24 1
29 -5 2 -14 0 -18 -4z m24 -13 c0 -5 -4 -9 -9 -7 -5 1 -16 -6 -23 -16 -13 -18
-14 -17 -14 2 0 11 4 18 7 15 4 -2 10 0 14 6 8 13 25 13 25 0z"/>
<path d="M1966 2562 c-3 -5 1 -9 9 -9 8 0 12 4 9 9 -3 4 -7 8 -9 8 -2 0 -6 -4
-9 -8z"/>
<path d="M670 2521 c0 -6 4 -13 10 -16 6 -3 7 1 4 9 -7 18 -14 21 -14 7z"/>
<path d="M2020 2526 c0 -2 8 -10 18 -17 15 -13 16 -12 3 4 -13 16 -21 21 -21
13z"/>
<path d="M630 2460 c0 -5 5 -10 10 -10 6 0 10 5 10 10 0 6 -4 10 -10 10 -5 0
-10 -4 -10 -10z"/>
<path d="M2046 2462 c-2 -4 -1 -14 5 -22 7 -12 9 -12 9 -1 0 8 8 4 20 -10 10
-13 19 -20 20 -15 0 5 8 2 18 -7 15 -14 19 -14 41 4 13 10 18 19 13 19 -6 0
-14 -5 -17 -10 -4 -6 -11 -7 -17 -4 -6 4 -5 10 3 15 10 7 5 8 -13 5 -17 -3
-33 3 -47 15 -22 21 -28 23 -35 11z m85 -49 c13 -16 12 -17 -3 -4 -10 7 -18
15 -18 17 0 8 8 3 21 -13z"/>
<path d="M2098 2458 c6 -6 18 -8 28 -6 14 3 12 5 -9 10 -19 3 -25 2 -19 -4z"/>
<path d="M2190 2409 c0 -5 5 -7 10 -4 6 3 10 8 10 11 0 2 -4 4 -10 4 -5 0 -10
-5 -10 -11z"/>
<path d="M2276 2332 c-2 -4 -1 -14 4 -22 7 -11 9 -9 7 8 -1 24 -3 26 -11 14z"/>
<path d="M410 2300 c-9 -6 -10 -10 -3 -10 6 0 15 5 18 10 8 12 4 12 -15 0z"/>
<path d="M2365 2261 c-3 -6 -14 -8 -25 -6 -29 6 -34 -11 -8 -29 12 -9 17 -16
10 -16 -7 0 -10 -5 -7 -10 4 -6 12 -5 21 4 16 17 19 30 4 21 -16 -10 -12 7 7
27 9 10 13 18 10 18 -3 0 -8 -4 -12 -9z m-15 -17 c0 -8 -19 -13 -24 -6 -3 5 1
9 9 9 8 0 15 -2 15 -3z"/>
<path d="M2380 2206 c0 -2 9 -6 20 -9 11 -3 18 -1 14 4 -5 9 -34 13 -34 5z"/>
<path d="M2395 2170 c-3 -5 -1 -10 4 -10 6 0 11 5 11 10 0 6 -2 10 -4 10 -3 0
-8 -4 -11 -10z"/>
<path d="M2430 2165 c-7 -9 -11 -17 -9 -20 3 -2 10 5 17 15 14 24 10 26 -8 5z"/>
<path d="M290 2155 c0 -8 2 -15 4 -15 2 0 6 7 10 15 3 8 1 15 -4 15 -6 0 -10
-7 -10 -15z"/>
<path d="M2455 2151 c-3 -5 -2 -12 3 -15 5 -3 9 1 9 9 0 17 -3 19 -12 6z"/>
<path d="M235 2121 c-3 -5 -2 -12 3 -15 5 -3 9 1 9 9 0 17 -3 19 -12 6z"/>
<path d="M280 2115 c10 -12 16 -13 27 -4 7 7 11 14 8 18 -3 3 -10 -1 -15 -9
-7 -10 -10 -11 -10 -2 0 6 -5 12 -11 12 -8 0 -8 -5 1 -15z"/>
<path d="M2427 2116 c-4 -10 -1 -13 9 -9 15 6 19 23 5 23 -5 0 -11 -7 -14 -14z"/>
<path d="M2496 2107 c3 -10 9 -15 12 -12 3 3 0 11 -7 18 -10 9 -11 8 -5 -6z"/>
<path d="M235 2050 c18 -7 18 -9 3 -15 -9 -4 -21 -20 -27 -36 -10 -28 -9 -29
12 -18 29 15 37 24 14 16 -13 -5 -17 -3 -15 5 3 7 10 13 16 13 6 0 17 6 24 13
10 10 10 15 -2 22 -8 5 -22 9 -30 9 -10 0 -8 -3 5 -9z"/>
<path d="M180 1971 c0 -7 -7 -11 -15 -8 -8 4 -16 3 -19 -1 -3 -4 4 -8 14 -9
20 -2 36 14 26 24 -3 4 -6 1 -6 -6z"/>
<path d="M2523 1963 c4 -3 2 -12 -3 -18 -7 -9 -6 -16 4 -24 10 -8 16 -9 21 -1
3 6 11 8 16 5 5 -4 6 2 2 11 -4 11 -8 13 -11 6 -2 -7 -8 -10 -12 -7 -5 3 -7
12 -3 20 3 8 -1 15 -8 15 -7 0 -9 -3 -6 -7z"/>
<path d="M115 1941 c-3 -5 -2 -12 3 -15 5 -3 9 1 9 9 0 17 -3 19 -12 6z"/>
<path d="M2580 1940 c8 -5 20 -10 25 -10 6 0 3 5 -5 10 -8 5 -19 10 -25 10 -5
0 -3 -5 5 -10z"/>
<path d="M2650 1899 c0 -5 5 -7 10 -4 6 3 10 8 10 11 0 2 -4 4 -10 4 -5 0 -10
-5 -10 -11z"/>
<path d="M2635 1861 c-3 -5 -2 -12 3 -15 5 -3 9 1 9 9 0 17 -3 19 -12 6z"/>
<path d="M2615 1070 c11 -17 -5 -32 -21 -19 -9 7 -14 8 -14 1 0 -14 16 -23 44
-26 13 -2 23 2 21 8 -5 24 -18 46 -27 46 -5 0 -6 -4 -3 -10z"/>
<path d="M2591 983 c-8 -14 -10 -15 -11 -3 0 13 -1 13 -10 0 -5 -9 -5 -19 1
-26 8 -10 -11 -38 -22 -31 -2 1 2 -3 9 -10 8 -6 20 -9 28 -6 16 6 19 23 3 23
-5 0 -8 4 -4 9 3 5 19 8 35 6 18 -2 30 1 30 7 0 6 -3 9 -6 5 -8 -8 -44 25 -38
35 3 4 3 8 0 8 -3 0 -10 -8 -15 -17z m19 -23 c0 -4 -7 -7 -15 -6 -23 3 -26 12
-5 13 11 1 20 -2 20 -7z"/>
<path d="M115 936 c0 -11 4 -27 8 -33 5 -7 4 -13 -1 -13 -5 0 -9 -7 -9 -15 0
-8 3 -13 5 -10 3 3 12 -4 19 -15 8 -11 19 -17 25 -14 8 5 9 1 5 -10 -5 -13 -3
-15 12 -7 10 6 20 8 23 6 3 -3 5 2 5 10 0 18 -13 20 -21 3 -2 -7 -4 -3 -2 9 1
12 6 26 11 30 4 5 5 2 1 -4 -4 -7 -2 -13 3 -13 6 0 11 7 11 15 0 9 -6 15 -12
13 -20 -4 -60 22 -55 36 3 7 -3 17 -12 23 -14 9 -17 7 -16 -11z m61 -73 c1 -6
-4 -14 -12 -17 -15 -6 -38 29 -29 44 3 5 1 11 -5 15 -5 3 -10 10 -10 15 0 12
54 -42 56 -57z"/>
<path d="M141 883 c-1 -17 16 -25 25 -12 4 7 3 9 -4 5 -5 -3 -13 0 -15 6 -4 9
-6 10 -6 1z"/>
<path d="M2610 920 c0 -5 5 -10 10 -10 6 0 10 5 10 10 0 6 -4 10 -10 10 -5 0
-10 -4 -10 -10z"/>
<path d="M2645 920 c-3 -6 1 -7 9 -4 18 7 21 14 7 14 -6 0 -13 -4 -16 -10z"/>
<path d="M2592 891 c-11 -7 -11 -9 0 -14 9 -3 15 1 15 9 0 8 -1 14 -1 14 -1 0
-7 -4 -14 -9z"/>
<path d="M2650 881 c0 -6 4 -13 10 -16 6 -3 7 1 4 9 -7 18 -14 21 -14 7z"/>
<path d="M2627 859 c7 -7 15 -10 18 -7 3 3 -2 9 -12 12 -14 6 -15 5 -6 -5z"/>
<path d="M105 840 c3 -5 8 -10 11 -10 2 0 4 5 4 10 0 6 -5 10 -11 10 -5 0 -7
-4 -4 -10z"/>
<path d="M137 809 c4 -13 8 -18 11 -10 2 7 -1 18 -6 23 -8 8 -9 4 -5 -13z"/>
<path d="M2566 803 c-6 -14 -5 -15 5 -6 7 7 10 15 7 18 -3 3 -9 -2 -12 -12z"/>
<path d="M2500 800 c0 -5 4 -10 9 -10 6 0 13 5 16 10 3 6 -1 10 -9 10 -9 0
-16 -4 -16 -10z"/>
<path d="M2461 689 c-14 -37 28 -73 55 -47 3 4 -2 5 -13 4 -26 -5 -35 3 -20
18 6 8 15 12 18 10 4 -2 10 3 13 12 3 9 2 12 -5 9 -5 -4 -16 -1 -24 5 -12 10
-16 8 -24 -11z m23 2 c3 -5 -2 -15 -12 -22 -15 -12 -16 -12 -5 2 7 9 10 19 6
22 -3 4 -4 7 0 7 3 0 8 -4 11 -9z"/>
<path d="M236 674 c-5 -13 -4 -14 7 -6 8 7 18 8 22 4 5 -4 5 -1 1 6 -10 17
-23 15 -30 -4z"/>
<path d="M255 620 c-3 -5 -1 -10 4 -10 6 0 11 5 11 10 0 6 -2 10 -4 10 -3 0
-8 -4 -11 -10z"/>
<path d="M2465 600 c-3 -6 1 -7 9 -4 18 7 21 14 7 14 -6 0 -13 -4 -16 -10z"/>
<path d="M393 465 c0 -8 4 -15 9 -15 4 0 8 4 8 9 0 6 -4 12 -8 15 -5 3 -9 -1
-9 -9z"/>
<path d="M430 416 c0 -2 8 -10 18 -17 15 -13 16 -12 3 4 -13 16 -21 21 -21 13z"/>
<path d="M2255 400 c-3 -5 -1 -10 4 -10 6 0 11 5 11 10 0 6 -2 10 -4 10 -3 0
-8 -4 -11 -10z"/>
<path d="M498 357 c-3 -19 -2 -25 4 -19 6 6 8 18 6 28 -3 14 -5 12 -10 -9z"/>
<path d="M2265 360 c-3 -6 1 -7 9 -4 18 7 21 14 7 14 -6 0 -13 -4 -16 -10z"/>
<path d="M586 283 c-6 -14 -5 -15 5 -6 7 7 10 15 7 18 -3 3 -9 -2 -12 -12z"/>
<path d="M651 280 c-13 -11 -19 -20 -14 -20 6 0 18 9 28 20 23 25 17 25 -14 0z"/>
<path d="M2110 290 c-9 -6 -10 -10 -3 -10 6 0 15 5 18 10 8 12 4 12 -15 0z"/>
<path d="M716 207 c3 -8 11 -14 19 -14 20 0 19 4 -5 17 -15 8 -18 8 -14 -3z"/>
<path d="M807 196 c-19 -15 -24 -31 -5 -20 8 5 9 1 5 -12 -7 -18 -6 -18 8 1 9
11 18 19 21 17 12 -8 14 6 2 16 -9 7 -18 7 -31 -2z m27 -4 c3 -5 -1 -9 -9 -9
-8 0 -12 4 -9 9 3 4 7 8 9 8 2 0 6 -4 9 -8z"/>
<path d="M1849 183 c14 -28 17 -28 25 -6 4 10 4 14 0 10 -4 -4 -14 -1 -22 6
-13 10 -14 9 -3 -10z"/>
<path d="M1955 180 c-3 -5 -1 -10 4 -10 6 0 11 5 11 10 0 6 -2 10 -4 10 -3 0
-8 -4 -11 -10z"/>
<path d="M1461 133 c-7 -8 -20 -12 -29 -8 -25 9 -8 -4 30 -24 18 -10 33 -24
33 -31 0 -16 43 -21 52 -7 3 6 1 7 -5 3 -7 -4 -12 -2 -12 4 0 6 -4 9 -9 6 -5
-3 -15 2 -22 11 -12 14 -11 15 6 10 14 -5 24 -1 33 14 8 12 9 18 4 15 -6 -3
-12 -1 -14 5 -6 18 -51 19 -67 2z m52 -9 c4 -1 10 -2 13 -3 3 0 2 -6 -1 -11
-5 -8 -11 -8 -20 0 -10 8 -14 8 -17 -1 -2 -7 -10 -9 -17 -5 -9 6 -9 11 0 22 6
7 16 11 23 7 6 -4 14 -8 19 -9z"/>
<path d="M1773 121 c0 -11 5 -18 9 -15 4 3 5 11 1 19 -7 21 -12 19 -10 -4z"/>
<path d="M1655 101 c-3 -5 0 -13 6 -17 7 -4 9 -3 5 4 -3 5 0 13 6 15 9 4 10 6
1 6 -6 1 -14 -3 -18 -8z"/>
<path d="M1611 87 c2 -1 13 -9 24 -17 19 -14 19 -14 6 3 -7 9 -18 17 -24 17
-6 0 -8 -1 -6 -3z"/>
<path d="M1291 60 c-13 -11 -19 -20 -13 -20 10 0 42 27 42 36 0 7 -4 5 -29
-16z"/>
<path d="M1015 60 c3 -5 8 -10 11 -10 2 0 4 5 4 10 0 6 -5 10 -11 10 -5 0 -7
-4 -4 -10z"/>
<path d="M1135 60 c6 -9 4 -12 -7 -8 -8 4 -15 1 -15 -6 0 -17 25 -16 31 0 3 8
0 16 -6 20 -7 5 -8 2 -3 -6z"/>
<path d="M1175 61 c-10 -10 -4 -21 18 -31 20 -10 20 -10 5 3 -18 14 -25 33
-10 23 4 -2 14 -1 22 4 11 7 9 9 -8 7 -13 -1 -25 -3 -27 -6z"/>
<path d="M1385 60 c-4 -7 -2 -17 4 -23 9 -9 11 -8 6 6 -4 9 -3 17 3 17 6 0 13
-10 15 -22 5 -21 5 -21 4 1 -2 27 -21 39 -32 21z"/>
<path d="M1595 60 c-16 -7 -17 -9 -3 -9 9 -1 20 4 23 9 7 11 7 11 -20 0z"/>
<path d="M1312 44 c-7 -8 -8 -14 -3 -14 10 0 25 19 20 25 -2 1 -10 -3 -17 -11z"/>
<path d="M1551 47 c-8 -10 -7 -14 2 -14 8 0 14 6 14 14 0 7 -1 13 -2 13 -2 0
-8 -6 -14 -13z"/>
<path d="M1336 35 c-6 -17 16 -31 33 -21 5 3 12 1 14 -4 3 -6 4 -5 3 2 -2 7
-13 12 -24 10 -16 -2 -20 1 -16 12 3 9 4 16 1 16 -3 0 -8 -7 -11 -15z"/>
<path d="M1472 38 c2 -6 10 -13 16 -14 7 -1 8 0 2 3 -5 2 -8 9 -4 14 3 5 0 9
-6 9 -7 0 -10 -5 -8 -12z"/>
<path d="M1270 20 c0 -5 5 -10 10 -10 6 0 10 5 10 10 0 6 -4 10 -10 10 -5 0
-10 -4 -10 -10z"/>
<path d="M1430 21 c0 -5 5 -13 10 -16 6 -3 10 -2 10 4 0 5 -4 13 -10 16 -5 3
-10 2 -10 -4z"/>
<path d="M1635 20 c3 -5 8 -10 11 -10 2 0 4 5 4 10 0 6 -5 10 -11 10 -5 0 -7
-4 -4 -10z"/>
</g>
</svg>
